<svg xmlns="http://www.w3.org/2000/svg" xmlns:svg="http://www.w3.org/2000/svg" xmlns:xlink="http://www.w3.org/1999/xlink" version="1.0" height="626.9993896484375pt" width="900.0000050067902pt" viewBox="5 102 908.0000050067902 632.9993896484375" ><defs><style type="text/css">
            @font-face {
                font-family: 'noto_regular';
                src: url('https://app.creately.com/diagram/assets/fonts/noto/noto-regular.woff') format('woff'),
                     url('https://app.creately.com/diagram/assets/fonts/noto/noto-regular.woff2') format('woff2');
                font-weight: normal;
                font-style: normal;
            }
        p {
            margin: 0;
        }
        </style></defs><defs><style>
            span{ display: inline-block; }
        </style></defs><g id="40mfv3t6x8"><g transform="translate(35 105)"><path d="M 28.54382872581482,57.08765745162964 L 28.543828725814823,57.08765745162964 L 28.543828725814823,57.08765745162964 A 28.54382872581482 28.54382872581482 0 0 1 3.552713678800501e-15 28.54382872581482 L 1.0658141036401503e-14,28.543828725814826 L 1.0658141036401503e-14,28.543828725814826 A 28.54382872581482 28.54382872581482 0 0 1 28.54382872581483 3.552713678800501e-15 L 121.4561665058136,0 L 121.4561665058136,3.552713678800501e-15 L 121.4561665058136,3.552713678800501e-15 A 28.54382872581482 28.54382872581482 0 0 1 149.99999523162842 28.543828725814823 L 149.99999523162842,28.543828725814816 L 149.99999523162842,28.543828725814816 A 28.54382872581482 28.54382872581482 0 0 1 121.4561665058136 57.08765745162964 L 28.54382872581482,57.08765745162964 Z" fill="rgba(249,104,114,1)" stroke="#e85861" stroke-width="1" stroke-linecap="round" stroke-linejoin="round"/></g><g transform="translate(55.49999761581421, 124.04382872581482) rotate(0, 54.5, 9.5)" width="109" height="19"><text text-decoration="none" x="3" fill="rgb(255, 255, 255)" font-size="10pt" font-family="Lato"  y="17">Browse&#160;</text><text text-decoration="none" x="50" fill="rgb(255, 255, 255)" font-size="10pt" font-family="Lato"  y="17">Furniture</text><text text-decoration="none" x="106" fill="#4b4b4b" font-size="10pt" font-family="noto_regular"  y="17"></text></g></g><g id="47wanb5r18"><g transform="translate(40 215)"><path d="M 69.99969482421875,0.5 L 0.5,51.899871826171875 L 69.99969482421875,103.29974365234375 L 139.4993896484375,51.899871826171875 L 69.99969482421875,0.5" fill="rgb(81, 198, 155)" stroke="rgb(64, 183, 137)" stroke-width="1" stroke-linecap="round" stroke-linejoin="round" stroke-dasharray="0 0"/></g><g transform="translate(87.44979313441686, 239.8499386296796) rotate(0, 0, 0)" width="48" height="19"><text text-decoration="none" x="0" fill="#ffffff" font-size="11pt" font-family="Lato"  y="17">Order&#160;</text><text text-decoration="none" x="45" fill="#4b4b4b" font-size="10pt" font-family="noto_regular"  y="17"></text></g><g transform="translate(72.94985634940011, 257.8498941763288) rotate(0, 0, 0)" width="82" height="19"><text text-decoration="none" x="0" fill="#ffffff" font-size="11pt" font-family="Lato"  y="17">Furniture?&#160;</text><text text-decoration="none" x="74" fill="#4b4b4b" font-size="10pt" font-family="noto_regular"  y="17"></text></g></g><g id="1znjsrk9e5"><g transform="translate(285 245)"><rect x="0" y="0" width="150.0000034570694" height="62.277448296546936" fill="rgba(62,139,185,1)" stroke="#367da5" stroke-width="1" stroke-linecap="round" stroke-linejoin="round"/></g><g transform="translate(291.5000017285347, 258.63872414827347) rotate(0, 68.5, 17.5)" width="137" height="35"><text text-decoration="none" x="4.5" fill="rgb(255, 255, 255)" font-size="10pt" font-family="Lato"  y="14">Add&#160;</text><text text-decoration="none" x="31.5" fill="rgb(255, 255, 255)" font-size="10pt" font-family="Lato"  y="14">to&#160;</text><text text-decoration="none" x="47.5" fill="rgb(255, 255, 255)" font-size="10pt" font-family="Lato"  y="14">Shopping&#160;</text><text text-decoration="none" x="107.5" fill="rgb(255, 255, 255)" font-size="10pt" font-family="Lato"  y="14">Cart&#160;</text><text text-decoration="none" x="33" fill="rgb(255, 255, 255)" font-size="10pt" font-family="Lato"  y="36">in&#160;</text><text text-decoration="none" x="47" fill="rgb(255, 255, 255)" font-size="10pt" font-family="Lato"  y="36">Checkout</text><text text-decoration="none" x="104" fill="#4b4b4b" font-size="10pt" font-family="noto_regular"  y="36"></text></g></g><g id="1xyw4upx9h"><g transform="translate(540 215)"><path d="M 68.499755859375,0.5 L 0.5,49.299774169921875 L 68.499755859375,98.09954833984375 L 136.49951171875,49.299774169921875 L 68.499755859375,0.5" fill="rgb(81, 198, 155)" stroke="rgb(64, 183, 137)" stroke-width="1" stroke-linecap="round" stroke-linejoin="round" stroke-dasharray="0 0"/></g><g transform="translate(579.9498576143362, 237.24989807871728) rotate(0, 0, 0)" width="65" height="19"><text text-decoration="none" x="0" fill="#ffffff" font-size="11pt" font-family="Lato"  y="17">finished&#160;</text><text text-decoration="none" x="59" fill="#4b4b4b" font-size="10pt" font-family="noto_regular"  y="17"></text></g><g transform="translate(570.449891473255, 255.24981562554473) rotate(0, 0, 0)" width="86" height="19"><text text-decoration="none" x="0" fill="#ffffff" font-size="11pt" font-family="Lato"  y="17">Shopping?&#160;</text><text text-decoration="none" x="75" fill="#4b4b4b" font-size="10pt" font-family="noto_regular"  y="17"></text></g></g><g id="23uz5r5wct"><g transform="translate(745 140)"><rect x="0" y="0" width="165.00000500679016" height="72.65702605247498" fill="rgba(62,139,185,1)" stroke="#367da5" stroke-width="1" stroke-linecap="round" stroke-linejoin="round"/></g><g transform="translate(763.5000025033951, 158.8285130262375) rotate(0, 64, 17.5)" width="128" height="35"><text text-decoration="none" x="4.5" fill="rgb(255, 255, 255)" font-size="10pt" font-family="Lato"  y="14">Go&#160;</text><text text-decoration="none" x="24.5" fill="rgb(255, 255, 255)" font-size="10pt" font-family="Lato"  y="14">to&#160;</text><text text-decoration="none" x="40.5" fill="rgb(255, 255, 255)" font-size="10pt" font-family="Lato"  y="14">Checkout&#160;</text><text text-decoration="none" x="100.5" fill="rgb(255, 255, 255)" font-size="10pt" font-family="Lato"  y="14">and&#160;</text><text text-decoration="none" x="29.5" fill="rgb(255, 255, 255)" font-size="10pt" font-family="Lato"  y="36">Place&#160;</text><text text-decoration="none" x="63.5" fill="rgb(255, 255, 255)" font-size="10pt" font-family="Lato"  y="36">Order</text><text text-decoration="none" x="98.5" fill="#4b4b4b" font-size="10pt" font-family="noto_regular"  y="36"></text></g></g><g id="24b09eyt4h"><g transform="translate(260 602)"><path d="M 117.49725341796875,0.5 L 0.5,64.99969482421875 L 117.49725341796875,129.4993896484375 L 234.4945068359375,64.99969482421875 L 117.49725341796875,0.5" fill="rgb(81, 198, 155)" stroke="rgb(64, 183, 137)" stroke-width="1" stroke-linecap="round" stroke-linejoin="round" stroke-dasharray="0 0"/></g><g transform="translate(320.45, 639.9498218242938) rotate(0, 0, 0)" width="129" height="19"><text text-decoration="none" x="0" fill="#ffffff" font-size="11pt" font-family="Lato"  y="17">Are&#160;</text><text text-decoration="none" x="28" fill="#ffffff" font-size="11pt" font-family="Lato"  y="17">Stock&#160;</text><text text-decoration="none" x="69" fill="#ffffff" font-size="11pt" font-family="Lato"  y="17">Levels&#160;</text><text text-decoration="none" x="116" fill="#4b4b4b" font-size="10pt" font-family="noto_regular"  y="17"></text></g><g transform="translate(282.45, 657.9497373140775) rotate(0, 0, 0)" width="233" height="19"><text text-decoration="none" x="0" fill="#ffffff" font-size="11pt" font-family="Lato"  y="17">Below&#160;</text><text text-decoration="none" x="47" fill="#ffffff" font-size="11pt" font-family="Lato"  y="17">Critical&#160;&#160;</text><text text-decoration="none" x="102" fill="#ffffff" font-size="11pt" font-family="Lato"  y="17">Minimum&#160;</text><text text-decoration="none" x="174" fill="#ffffff" font-size="11pt" font-family="Lato"  y="17">Stock&#160;</text><text text-decoration="none" x="215" fill="#4b4b4b" font-size="10pt" font-family="noto_regular"  y="17"></text></g><g transform="translate(348.95, 675.9496528038612) rotate(0, 0, 0)" width="60" height="19"><text text-decoration="none" x="0" fill="#ffffff" font-size="11pt" font-family="Lato"  y="17">Levels?&#160;</text><text text-decoration="none" x="53" fill="#4b4b4b" font-size="10pt" font-family="noto_regular"  y="17"></text></g></g><g id="2cxk6r5q0s"><g transform="translate(190 225)"><rect x="0" y="0" width="35.94818115234375" height="28.33941650390625" fill="rgba(255,255,255,0.01)" stroke="rgba(255,255,255,0.01)" stroke-width="NaN" stroke-linecap="round" stroke-linejoin="round"/></g><g transform="translate(197.97409057617188, 229.66970825195312) rotate(0, 10, 9.5)" width="20" height="19"><text text-decoration="none" x="0.5" fill="rgb(0, 0, 0)" font-size="9pt" font-family="Lato"  y="17">yes</text><text text-decoration="none" x="19.5" fill="#4b4b4b" font-size="10pt" font-family="noto_regular"  y="17"></text></g></g><g id="b3kp178v4h"><g><path d="M 522,179 L 522,179" fill="none" stroke="#a0a0a0" stroke-width="1.5" stroke-linecap="round" stroke-linejoin="round"/></g></g><g id="2nfdzd4c9t"><g transform="translate(556.9 160)"><rect x="0" y="0" width="35.0995771586895" height="44.98932123184204" fill="rgba(255,255,255,0.01)" stroke="rgba(255,255,255,0.01)" stroke-width="NaN" stroke-linecap="round" stroke-linejoin="round"/></g><g transform="translate(566.4497885793447, 172.99466061592102) rotate(0, 8, 9.5)" width="16" height="19"><text text-decoration="none" x="0" fill="rgb(0, 0, 0)" font-size="9pt" font-family="Lato"  y="17">No</text><text text-decoration="none" x="16" fill="#4b4b4b" font-size="10pt" font-family="noto_regular"  y="17"></text></g></g><g id="1ex72sw12f"><g transform="translate(660 220)"><rect x="0" y="0" width="43.048095703125" height="28.33941650390625" fill="rgba(255,255,255,0.01)" stroke="rgba(255,255,255,0.01)" stroke-width="NaN" stroke-linecap="round" stroke-linejoin="round"/></g><g transform="translate(672.5240478515625, 224.66970825195312) rotate(0, 9, 9.5)" width="18" height="19"><text text-decoration="none" x="0" fill="rgb(0, 0, 0)" font-size="9pt" font-family="Lato"  y="17">Yes</text><text text-decoration="none" x="20" fill="#4b4b4b" font-size="10pt" font-family="noto_regular"  y="17"></text></g></g><g id="tzr3ssnmy3"><g transform="translate(780 335)"><path d="M 11.5,0.5 Q -7,58.678174187155335 11.5,118.85634837431067 L 102.68948562325588,118.85634837431067 Q 83.68948562325588,58.678174187155335 102.18948562325588,0.5 L 12,0.5" fill="rgb(62, 139, 185)" stroke="rgb(54, 125, 165)" stroke-width="1" stroke-linecap="round" stroke-linejoin="round"/></g><g transform="translate(798.7833345880072, 367.1517100983166) rotate(0, 30, 0)" width="60" height="49"><text text-decoration="none" x="16.5" fill="#ffffff" font-size="9pt" font-family="Lato"  y="13">Save</text><text text-decoration="none" x="43.5" fill="#ffffff" font-size="9pt" font-family="Lato"  y="13"></text><text text-decoration="none" x="3.5" fill="#ffffff" font-size="9pt" font-family="Lato"  y="31">Details&#160;</text><text text-decoration="none" x="45.5" fill="#ffffff" font-size="9pt" font-family="Lato"  y="31">to</text><text text-decoration="none" x="56.5" fill="#ffffff" font-size="9pt" font-family="Lato"  y="31"></text><text text-decoration="none" x="1.5" fill="#ffffff" font-size="9pt" font-family="Lato"  y="53">Database&#160;</text><text text-decoration="none" x="58.5" fill="#4b4b4b" font-size="10pt" font-family="noto_regular"  y="53"></text></g></g><g id="2iskx1sl6w"><g transform="translate(276.1 423.05)"><rect x="0" y="0" width="195.00002014636993" height="72.65702605247498" fill="rgba(62,139,185,1)" stroke="#367da5" stroke-width="1" stroke-linecap="round" stroke-linejoin="round"/></g><g transform="translate(315.600010073185, 449.8785130262375) rotate(0, 58, 9.5)" width="116" height="19"><text text-decoration="none" x="4.5" fill="rgb(255, 255, 255)" font-size="10pt" font-family="Lato"  y="17">Order&#160;</text><text text-decoration="none" x="42.5" fill="rgb(255, 255, 255)" font-size="10pt" font-family="Lato"  y="17">New&#160;</text><text text-decoration="none" x="72.5" fill="rgb(255, 255, 255)" font-size="10pt" font-family="Lato"  y="17">Stocks</text><text text-decoration="none" x="111.5" fill="#4b4b4b" font-size="10pt" font-family="noto_regular"  y="17"></text></g></g><g id="252p8xobdc"><g transform="translate(10 422)"><path d="M 31.138722896575928,62.277445793151855 L 31.138722896575928,62.277445793151855 L 31.13872289657593,62.277445793151855 A 31.138722896575928 31.138722896575928 0 0 1 0 31.13872289657593 L 0,31.138722896575928 L 0,31.13872289657593 A 31.138722896575928 31.138722896575928 0 0 1 31.13872289657593 0 L 113.86127471923828,0 L 113.86127471923828,0 L 113.86127471923828,0 A 31.138722896575928 31.138722896575928 0 0 1 144.9999976158142 31.138722896575928 L 144.9999976158142,31.138722896575928 L 144.9999976158142,31.138722896575928 A 31.138722896575928 31.138722896575928 0 0 1 113.86127471923828 62.277445793151855 L 31.138722896575928,62.277445793151855 Z" fill="rgba(249,104,114,1)" stroke="#e85861" stroke-width="1" stroke-linecap="round" stroke-linejoin="round"/></g><g transform="translate(22.999998807907104, 443.6387228965759) rotate(0, 59.5, 9.5)" width="119" height="19"><text text-decoration="none" x="5" fill="rgb(255, 255, 255)" font-size="10pt" font-family="Lato"  y="17">Terminate&#160;</text><text text-decoration="none" x="69" fill="rgb(255, 255, 255)" font-size="10pt" font-family="Lato"  y="17">Session</text><text text-decoration="none" x="114" fill="#4b4b4b" font-size="10pt" font-family="noto_regular"  y="17"></text></g></g><g id="1c973oopj7"><g transform="translate(215 635)"><rect x="0" y="0" width="36.0992431640625" height="28.33941650390625" fill="rgba(255,255,255,0.01)" stroke="rgba(255,255,255,0.01)" stroke-width="NaN" stroke-linecap="round" stroke-linejoin="round"/></g><g transform="translate(225.04962158203125, 639.6697082519531) rotate(0, 8, 9.5)" width="16" height="19"><text text-decoration="none" x="0" fill="rgb(0, 0, 0)" font-size="9pt" font-family="Lato"  y="17">No</text><text text-decoration="none" x="16" fill="#4b4b4b" font-size="10pt" font-family="noto_regular"  y="17"></text></g></g><g id="5r9jrxg641"><g transform="translate(380 565)"><rect x="0" y="0" width="43.048095703125" height="28.33941650390625" fill="rgba(255,255,255,0.01)" stroke="rgba(255,255,255,0.01)" stroke-width="NaN" stroke-linecap="round" stroke-linejoin="round"/></g><g transform="translate(392.5240478515625, 569.6697082519531) rotate(0, 9, 9.5)" width="18" height="19"><text text-decoration="none" x="0" fill="rgb(0, 0, 0)" font-size="9pt" font-family="Lato"  y="17">Yes</text><text text-decoration="none" x="20" fill="#4b4b4b" font-size="10pt" font-family="noto_regular"  y="17"></text></g></g><g id="wdlspbvpnu"><g transform="translate(110 302.75)"><rect x="0" y="0" width="36.0992431640625" height="28.33941650390625" fill="rgba(255,255,255,0.01)" stroke="rgba(255,255,255,0.01)" stroke-width="NaN" stroke-linecap="round" stroke-linejoin="round"/></g><g transform="translate(120.04962158203125, 307.4197082519531) rotate(0, 8, 9.5)" width="16" height="19"><text text-decoration="none" x="0" fill="rgb(0, 0, 0)" font-size="9pt" font-family="Lato"  y="17">No</text><text text-decoration="none" x="16" fill="#4b4b4b" font-size="10pt" font-family="noto_regular"  y="17"></text></g></g><g id="urgrawo885"><g><path d="M 608.45,215 L 608.45,135 L 185,135" fill="none" stroke="#367da5" stroke-width="1.5" stroke-linecap="round" stroke-linejoin="round"/><path d="M 185,135 L 193.69565217391303,140.75 L 193.69565217391303,129.25 Z" fill="rgb(54,125,165)" stroke="#367da5" stroke-width="1.5" stroke-linecap="round" stroke-linejoin="round"/></g></g><g id="154cdhdpjf"><g><path d="M 110,160 L 110,188.54382872581482 L 109.975,188.54382872581482 L 109.95,188.54382872581482 L 109.95,215" fill="none" stroke="#367da5" stroke-width="1.5" stroke-linecap="round" stroke-linejoin="round"/><path d="M 109.95,215 L 115.7,206.30434782608697 L 104.2,206.30434782608697 Z" fill="rgb(54,125,165)" stroke="#367da5" stroke-width="1.5" stroke-linecap="round" stroke-linejoin="round"/></g></g><g id="51bz6zyz3a"><g><path d="M 179.95,266.85 L 232.5,266.85 L 232.5,270.925 L 232.5,275 L 285,275" fill="none" stroke="#367da5" stroke-width="1.5" stroke-linecap="round" stroke-linejoin="round"/><path d="M 285,275 L 276.30434782608694,269.25 L 276.30434782608694,280.75 Z" fill="rgb(54,125,165)" stroke="#367da5" stroke-width="1.5" stroke-linecap="round" stroke-linejoin="round"/></g></g><g id="2dq9e4mimq"><g><path d="M 435,275 L 487.5000017285347,275 L 487.5000017285347,269.625 L 487.5000017285347,264.25 L 540,264.25" fill="none" stroke="#367da5" stroke-width="1.5" stroke-linecap="round" stroke-linejoin="round"/><path d="M 540,264.25 L 531.304347826087,258.5 L 531.304347826087,270 Z" fill="rgb(54,125,165)" stroke="#367da5" stroke-width="1.5" stroke-linecap="round" stroke-linejoin="round"/></g></g><g id="834ewof8d7"><g><path d="M 676.95,264.25 L 711,264.25 L 711,219.625 L 711,175 L 745,175" fill="none" stroke="#367da5" stroke-width="1.5" stroke-linecap="round" stroke-linejoin="round"/><path d="M 745,175 L 736.304347826087,169.25 L 736.304347826087,180.75 Z" fill="rgb(54,125,165)" stroke="#367da5" stroke-width="1.5" stroke-linecap="round" stroke-linejoin="round"/></g></g><g id="1eueq3p5mz"><g><path d="M 377.45,602 L 377.45,547 L 376.775,547 L 376.1,547 L 376.1,498.05" fill="none" stroke="#367da5" stroke-width="1.5" stroke-linecap="round" stroke-linejoin="round"/><path d="M 376.1,498.05 L 370.35,506.7456521739131 L 381.85,506.7456521739131 Z" fill="rgb(54,125,165)" stroke="#367da5" stroke-width="1.5" stroke-linecap="round" stroke-linejoin="round"/></g></g><g id="2c1uvspguv"><g><path d="M 260,666.95 L 80,666.95 L 80,482" fill="none" stroke="#367da5" stroke-width="1.5" stroke-linecap="round" stroke-linejoin="round"/><path d="M 80,482 L 74.25,490.69565217391306 L 85.75,490.69565217391306 Z" fill="rgb(54,125,165)" stroke="#367da5" stroke-width="1.5" stroke-linecap="round" stroke-linejoin="round"/></g></g><g id="qj47jxpyr2"><g><path d="M 109.95,318.75 L 109.95,370.4 L 109.975,370.4 L 110,370.4 L 110,422" fill="none" stroke="#367da5" stroke-width="1.5" stroke-linecap="round" stroke-linejoin="round"/><path d="M 110,422 L 115.75,413.30434782608694 L 104.25,413.30434782608694 Z" fill="rgb(54,125,165)" stroke="#367da5" stroke-width="1.5" stroke-linecap="round" stroke-linejoin="round"/></g></g><g id="1vftbso4at"><g><path d="M 276.1,458.05 L 215.54999880790712,458.05 L 215.54999880790712,455.025 L 215.54999880790712,452 L 155,452" fill="none" stroke="#367da5" stroke-width="1.5" stroke-linecap="round" stroke-linejoin="round"/><path d="M 155,452 L 163.69565217391303,457.75 L 163.69565217391303,446.25 Z" fill="rgb(54,125,165)" stroke="#367da5" stroke-width="1.5" stroke-linecap="round" stroke-linejoin="round"/></g></g><g id="26hy64xt6l"><g><path d="M 830,215 L 830,335" fill="none" stroke="#367da5" stroke-width="1.5" stroke-linecap="round" stroke-linejoin="round"/><path d="M 830,335 L 835.75,326.30434782608694 L 824.25,326.30434782608694 Z" fill="rgb(54,125,165)" stroke="#367da5" stroke-width="1.5" stroke-linecap="round" stroke-linejoin="round"/></g></g><g id="1c1h07uzn2"><g><path d="M 830.725,394.675 L 845,394.675 L 845,400" fill="none"/></g></g><g id="3o929blcyy"><g transform="translate(780 626.15)"><rect x="0" y="0" width="114.99999582767487" height="70.00000190734863" fill="rgba(62,139,185,1)" stroke="#367da5" stroke-width="1" stroke-linecap="round" stroke-linejoin="round"/></g><g transform="translate(796.9999979138374, 643.6500009536743) rotate(0, 40.5, 17.5)" width="81" height="35"><text text-decoration="none" x="3.5" fill="rgb(255, 255, 255)" font-size="10pt" font-family="Lato"  y="14">Adjust&#160;</text><text text-decoration="none" x="44.5" fill="rgb(255, 255, 255)" font-size="10pt" font-family="Lato"  y="14">Stock&#160;</text><text text-decoration="none" x="24" fill="rgb(255, 255, 255)" font-size="10pt" font-family="Lato"  y="36">levels</text><text text-decoration="none" x="57" fill="#4b4b4b" font-size="10pt" font-family="noto_regular"  y="36"></text></g></g><g id="25k2z9vflw"><g><path d="M 830,455 L 830,540.25 L 832.5,540.25 L 835,540.25 L 835,626.15" fill="none" stroke="#367da5" stroke-width="1.5" stroke-linecap="round" stroke-linejoin="round"/><path d="M 835,626.15 L 840.75,617.454347826087 L 829.25,617.454347826087 Z" fill="rgb(54,125,165)" stroke="#367da5" stroke-width="1.5" stroke-linecap="round" stroke-linejoin="round"/></g></g><g id="6tg1vbdutq"><g><path d="M 780,661.15 L 637.4972534179688,661.15 L 637.4972534179688,664.05 L 637.4972534179688,666.95 L 494.95,666.95" fill="none" stroke="#367da5" stroke-width="1.5" stroke-linecap="round" stroke-linejoin="round"/><path d="M 494.95,666.95 L 503.64565217391305,672.7 L 503.64565217391305,661.2 Z" fill="rgb(54,125,165)" stroke="#367da5" stroke-width="1.5" stroke-linecap="round" stroke-linejoin="round"/></g></g></svg>